<?xml version="1.0" encoding="iso-8859-1"?>
<!-- Generator: Adobe Illustrator 19.0.0, SVG Export Plug-In . SVG Version: 6.00 Build 0)  -->
<svg version="1.1" id="Capa_1" xmlns="http://www.w3.org/2000/svg" xmlns:xlink="http://www.w3.org/1999/xlink" x="0px" y="0px"
	 viewBox="0 0 512 512" style="enable-background:new 0 0 512 512;" xml:space="preserve">
<path style="fill:#34D6C1;" d="M435.83,504.5h-76.001V103.743c0-2.761,2.239-5,5-5h66.001c2.761,0,5,2.239,5,5V504.5z"/>
<path style="fill:#1AC4AE;" d="M435.83,103.743V504.5h-19.5V103.743c0-2.76-2.24-5-5-5h19.5
	C433.59,98.743,435.83,100.983,435.83,103.743z"/>
<path style="fill:#FFD071;" d="M293.827,504.5h-76.001V35.742c0-2.761,2.239-5,5-5h66.001c2.761,0,5,2.239,5,5V504.5z"/>
<path style="fill:#F7B657;" d="M293.827,35.742V504.5h-18V35.742c0-2.76-2.24-5-5-5h18
	C291.587,30.742,293.827,32.982,293.827,35.742z"/>
<path style="fill:#FF6E5E;" d="M151.825,504.5H75.823V260.746c0-2.761,2.239-5,5-5h66.001c2.761,0,5,2.239,5,5V504.5z"/>
<path style="fill:#F4584D;" d="M151.825,260.746V504.5h-19.29V260.746c0-2.76-2.24-5-5-5h19.29
	C149.585,255.746,151.825,257.986,151.825,260.746z"/>
<path d="M504.178,497H443.33V188.411c0-4.143-3.357-7.5-7.5-7.5c-4.143,0-7.5,3.357-7.5,7.5V497h-61.001V106.243h61.001v27.833
	c0,4.143,3.357,7.5,7.5,7.5c4.143,0,7.5-3.357,7.5-7.5v-30.334c0-6.893-5.607-12.5-12.5-12.5h-66.001c-6.893,0-12.5,5.607-12.5,12.5
	V497h-51.001V35.742c0-6.893-5.607-12.5-12.5-12.5h-66.001c-6.893,0-12.5,5.607-12.5,12.5V497h-51.001V342.414
	c0-4.143-3.357-7.5-7.5-7.5s-7.5,3.357-7.5,7.5V497H83.323V263.246h61.001v24.825c0,4.143,3.357,7.5,7.5,7.5s7.5-3.357,7.5-7.5
	v-27.326c0-6.893-5.607-12.5-12.5-12.5H80.823c-6.893,0-12.5,5.607-12.5,12.5V497H15.322l0.25-489.5c0-4.143-3.357-7.5-7.5-7.5
	s-7.5,3.357-7.5,7.5l-0.25,497c0,4.143,3.357,7.5,7.5,7.5h68.001h76.001h66.001h76.001h66.001h76.001h68.348
	c4.143,0,7.5-3.357,7.5-7.5C511.678,500.357,508.321,497,504.178,497z M225.326,497V38.242h61.001V497H225.326z"/>
<g>
</g>
<g>
</g>
<g>
</g>
<g>
</g>
<g>
</g>
<g>
</g>
<g>
</g>
<g>
</g>
<g>
</g>
<g>
</g>
<g>
</g>
<g>
</g>
<g>
</g>
<g>
</g>
<g>
</g>
</svg>
