<svg xmlns="http://www.w3.org/2000/svg" viewBox="0 0 512 512" width="512" height="512">
  <!-- Document body fill -->
  <path d="M 70 36 L 335 36 L 440 141 L 440 472 Q 440 484 428 484 L 82 484 Q 70 484 70 472 L 70 48 Q 70 36 82 36 Z"
        fill="#ffffff"/>

  <!-- Folded corner (light fill) -->
  <path d="M 335 36 L 335 141 L 440 141 Z" fill="#dde3ee"/>

  <!-- Chart bars (red / yellow / teal) -->
  <rect x="117" y="223" width="75" height="140" fill="#FF6E5E"/>
  <rect x="217" y="75"  width="75" height="288" fill="#FFD071"/>
  <rect x="317" y="153" width="75" height="210" fill="#34D6C1"/>

  <!-- Bottom PNG band (dark blue, also serves as X axis fill) -->
  <path d="M 70 363 L 440 363 L 440 472 Q 440 484 428 484 L 82 484 Q 70 484 70 472 Z"
        fill="#1e3a5f"/>

  <!-- Document outline -->
  <path d="M 70 36 L 335 36 L 440 141 L 440 472 Q 440 484 428 484 L 82 484 Q 70 484 70 472 L 70 48 Q 70 36 82 36 Z"
        fill="none" stroke="#1e3a5f" stroke-width="8" stroke-linejoin="round"/>

  <!-- Fold crease -->
  <path d="M 335 36 L 335 141 L 440 141"
        fill="none" stroke="#1e3a5f" stroke-width="8" stroke-linejoin="round"/>

  <!-- PNG text (white knockout) -->
  <text x="255" y="453" text-anchor="middle"
        font-family="Helvetica Neue, Arial, sans-serif"
        font-size="80" font-weight="900" fill="#ffffff" letter-spacing="4">PNG</text>

  <!-- Camera viewfinder brackets framing the whole icon (black) -->
  <g fill="none" stroke="#000000" stroke-width="10" stroke-linecap="round" stroke-linejoin="round">
    <!-- Top-left -->
    <path d="M 105 12 L 12 12 L 12 105"/>
    <!-- Top-right -->
    <path d="M 407 12 L 500 12 L 500 105"/>
    <!-- Bottom-left -->
    <path d="M 12 407 L 12 500 L 105 500"/>
    <!-- Bottom-right -->
    <path d="M 500 407 L 500 500 L 407 500"/>
  </g>
</svg>
