<svg id="Capa_1" enable-background="new 0 0 512.508 512.508" height="512" viewBox="0 0 512.508 512.508" width="512" xmlns="http://www.w3.org/2000/svg"><g><g><g><path d="m441.606 114.37v342.79c0 9.71-7.88 17.59-17.59 17.59h-339.78c-9.72 0-17.59-7.88-17.59-17.59v-432.08c0-9.71 7.87-17.58 17.59-17.58h250.49c.92 0 1.8.36 2.46 1.01l103.4 103.41c.65.65 1.02 1.53 1.02 2.45z" fill="#f3f0f3"/></g><g fill="#e2dee2"><path d="m358.328 373.057h-214.408c-.036 0-.073 0-.109 0-5.697.016-10.375-4.466-10.375-10.162v-337.815c0-9.71 7.87-17.58 17.59-17.58h-66.79c-9.72 0-17.59 7.87-17.59 17.58v432.08c0 9.71 7.87 17.59 17.59 17.59h312.09v-63.694c0-20.986-17.012-37.999-37.998-37.999z"/><path d="m441.572 113.89-11.156-4.157-69.47-29.415-27.816-71.868.456-.95h-20.455v101.48c0 13.735 11.175 24.909 24.91 24.909h103.58v-19.52c-.001-.161-.026-.32-.049-.479z"/><path d="m412.527 125.075 1.209-2.771v-8.41l-64.85-76.39h-43.64-27.798l-15.598 6.573-3.223-6.573h-53.97l-16.545 6.658-2.323-6.658h-70.409l-7.777 288.835 76.039-3.491 230.094 3.476v-79.326l-5.526.352-1.197-9.876 6.723-16.412v-73.18l-4.986-5.012z"/></g><path d="m413.736 113.894-64.85-76.39h-35.77v71.477c0 13.735 11.175 24.909 24.91 24.909h75.709v-19.996z" fill="#cbc4cc"/><g><path d="m360.458 505.007h-214.409c-9.94 0-17.998-8.058-17.998-17.998v-75.95c0-9.94 8.058-17.998 17.998-17.998h214.408c9.94 0 17.998 8.058 17.998 17.998v75.95c.001 9.94-8.057 17.998-17.997 17.998z" fill="#99e6fc"/><path d="m183.166 489.627c-9.94 0-17.998-8.058-17.998-17.999v-75.95c0-.892.086-1.761.211-2.618h-19.33c-9.94 0-17.998 8.058-17.998 17.998v75.95c0 9.94 8.058 17.998 17.998 17.998h214.408c9.049 0 16.516-6.685 17.787-15.38h-195.078z" fill="#62dbfb"/><g id="XMLID_228_"><g><path d="m413.736 133.89v-11.586l-8.388 11.586z" fill="#e2dee2"/><path d="m334.256 207.634c-2.44-3.64-7.73-3.78-10.36-.29l-48.2 63.93-26.791 30.509 39.641 30.313 34.5 9.887h90.69v-15.66z" fill="#22b27f"/><path d="m108.768 37.504c-5.518 0-9.992 4.474-9.992 9.992v107.692l6.235 5.843-6.235 20.929v71.739l7.469 4.654-7.469 21.526v46.865l34.66-1.591v-287.649z" fill="#cbc4cc"/><path d="m275.696 271.274 47.35 70.71h-224.27v-15.24l107.99-143.23c2.63-3.49 7.92-3.34 10.35.29z" fill="#57be92"/><path d="m133.436 280.773-34.66 45.971v15.24h34.66z" fill="#22b27f"/></g></g><circle cx="287.33" cy="140.662" fill="#fedf30" r="23.495"/></g><path d="m441.572 113.89c-.105-.741-.451-1.435-.986-1.97l-.03-.03-103.37-103.38c-.66-.65-1.54-1.01-2.46-1.01h-1.61v.95 100.53c0 2.71 2.2 4.91 4.91 4.91h100.53z" fill="#f3f0f3"/></g></g><g><path d="m360.458 385.561h-33.651c-4.143 0-7.5 3.357-7.5 7.5s3.357 7.5 7.5 7.5h33.651c5.789 0 10.498 4.709 10.498 10.498v75.951c0 5.789-4.709 10.498-10.498 10.498h-214.408c-5.789 0-10.498-4.709-10.498-10.498v-75.951c0-5.789 4.709-10.498 10.498-10.498h148.795c4.143 0 7.5-3.357 7.5-7.5s-3.357-7.5-7.5-7.5h-148.795c-14.06 0-25.498 11.438-25.498 25.498v75.951c0 14.06 11.438 25.498 25.498 25.498h214.408c14.06 0 25.498-11.438 25.498-25.498v-75.951c0-14.06-11.438-25.498-25.498-25.498z"/><path d="m448.02 106.618-103.404-103.403c-2.074-2.073-4.83-3.215-7.761-3.215h-250.493c-13.833 0-25.088 11.255-25.088 25.089v432.072c0 13.833 11.255 25.088 25.088 25.088h11.923c4.143 0 7.5-3.357 7.5-7.5s-3.357-7.5-7.5-7.5h-11.923c-5.563 0-10.088-4.525-10.088-10.088v-432.072c0-5.564 4.526-10.089 10.088-10.089h241.385v27.531l-31.325 42.368c-2.463 3.331-1.759 8.027 1.571 10.489 1.342.992 2.904 1.47 4.453 1.47 2.298 0 4.565-1.052 6.036-3.041l19.265-26.056v41.226c0 6.841 5.565 12.406 12.406 12.406h2.124l-7.679 10.386c-2.463 3.331-1.759 8.027 1.571 10.489 1.341.992 2.904 1.47 4.453 1.47 2.298 0 4.565-1.052 6.036-3.041l14.273-19.304h9.675c4.143 0 7.5-3.357 7.5-7.5s-3.357-7.5-7.5-7.5h-27.859v-83.833l83.833 83.833h-24.012c-4.143 0-7.5 3.357-7.5 7.5s3.357 7.5 7.5 7.5h33.665v335.769c0 5.563-4.525 10.088-10.088 10.088h-11.924c-4.143 0-7.5 3.357-7.5 7.5s3.357 7.5 7.5 7.5h11.924c13.833 0 25.088-11.255 25.088-25.088v-342.783c0-2.932-1.141-5.688-3.213-7.761z"/><path d="m312.748 37.5c0-4.143-3.357-7.5-7.5-7.5h-206.474c-4.143 0-7.5 3.357-7.5 7.5v304.486c0 4.143 3.357 7.5 7.5 7.5h314.959c4.143 0 7.5-3.357 7.5-7.5v-198.093c0-4.143-3.357-7.5-7.5-7.5s-7.5 3.357-7.5 7.5v88.023l-24.503 33.139-25.75-38.455 36.638-49.552c2.463-3.331 1.76-8.027-1.571-10.489-3.33-2.464-8.027-1.759-10.489 1.571l-33.443 45.23-6.631-9.902c-2.49-3.72-6.648-6.016-11.124-6.141-4.44-.129-8.755 1.933-11.451 5.509l-41.853 55.513-7.784-11.625 36.472-49.329c2.463-3.331 1.759-8.027-1.571-10.489-3.333-2.464-8.027-1.759-10.489 1.571l-33.277 45.008-25.751-38.455 15.097-20.418c2.463-3.331 1.76-8.027-1.571-10.489-3.33-2.464-8.027-1.759-10.489 1.571l-11.903 16.096-1.44-2.15c-2.49-3.72-6.649-6.016-11.125-6.141-4.457-.137-8.755 1.935-11.449 5.509l-36.696 48.673c-2.494 3.307-1.834 8.01 1.474 10.503 3.305 2.492 8.01 1.835 10.503-1.474l35.727-47.386 97.213 145.172h-202.72v-5.23l50.352-66.784c2.494-3.307 1.834-8.01-1.474-10.503-3.307-2.494-8.01-1.836-10.503 1.474l-38.375 50.899v-35.554l165.462-223.788h33.509c4.143 0 7.5-3.357 7.5-7.5zm93.485 219.645v44.501l-15.637-23.353zm-121.342 14.389 44.025-58.392 77.317 115.462v5.883h-79.187zm-104.644-226.534-73.972 100.046v-100.046zm-73.973 198.558v-73.282l92.627-125.276h54.184z"/><path d="m287.33 171.657c17.091 0 30.995-13.904 30.995-30.995s-13.904-30.995-30.995-30.995-30.995 13.904-30.995 30.995 13.904 30.995 30.995 30.995zm0-46.99c8.819 0 15.995 7.176 15.995 15.995s-7.176 15.995-15.995 15.995-15.995-7.176-15.995-15.995 7.176-15.995 15.995-15.995z"/></g><g><path d="m193.566 417.668h-13.27c-4.143 0-7.5 3.357-7.5 7.5v47.659c0 4.143 3.357 7.5 7.5 7.5s7.5-3.357 7.5-7.5v-13.241c2.201-.01 4.393-.019 5.77-.019 11.697 0 21.213-9.397 21.213-20.949s-9.515-20.95-21.213-20.95zm0 26.899c-1.378 0-3.566.008-5.77.019v-11.918h5.77c3.368 0 6.213 2.725 6.213 5.95s-2.844 5.949-6.213 5.949z"/><path d="m337.899 441.534h-14.279c-4.143 0-7.5 3.357-7.5 7.5s3.357 7.5 7.5 7.5h5.62c-1.696 4.975-5.389 8.866-11.943 8.866-9.023 0-16.365-7.342-16.365-16.366s7.342-16.366 16.365-16.366c3.28 0 6.442.965 9.145 2.791 3.435 2.318 8.096 1.415 10.414-2.016 2.318-3.433 1.416-8.095-2.016-10.414-5.192-3.507-11.258-5.361-17.543-5.361-17.295 0-31.365 14.071-31.365 31.366s14.07 31.366 31.365 31.366c16.546 0 28.103-12.898 28.103-31.366-.001-4.142-3.358-7.5-7.501-7.5z"/><path d="m265.69 418.163c-.025 0-.05 0-.074 0-4.143.04-7.468 3.431-7.428 7.572l.233 24.126-19.593-28.37c-1.865-2.701-5.27-3.873-8.403-2.898-3.133.977-5.268 3.878-5.268 7.16v47.683c0 4.143 3.357 7.5 7.5 7.5s7.5-3.357 7.5-7.5v-23.624l18.57 26.89c2.144 3.099 5.743 4.408 9.17 3.34 3.484-1.088 5.736-4.313 5.736-8.287l-.446-46.163c-.039-4.118-3.388-7.429-7.497-7.429z"/></g></svg>